<svg width="120" height="120" viewBox="0 0 120 120" fill="none" xmlns="http://www.w3.org/2000/svg">
<path d="M58.8545 5.45459C48.9272 5.45459 40.9091 13.3753 40.9091 23.1819C40.9091 32.9131 48.9272 40.8336 58.7781 40.9091C56.3345 40.8336 54.4254 38.8724 54.4254 36.4584C54.4254 34.0445 56.4109 32.0078 58.9309 32.0078C69.6217 32.0078 93.3709 32.0078 103.833 32.0078C111.24 32.0078 117.273 26.0484 117.273 18.7313C117.273 11.414 111.24 5.45459 103.833 5.45459L58.8545 5.45459Z" fill="#5720B7"/>
<path d="M37.0364 40.9092C27.1091 40.9092 19.0909 48.8299 19.0909 58.6365C19.0909 68.3677 27.1091 76.2882 36.96 76.3637C34.5164 76.2882 32.6073 74.327 32.6073 71.913C32.6073 69.4991 34.5928 67.4624 37.1128 67.4624C47.8036 67.4624 71.5528 67.4624 82.0146 67.4624C89.4219 67.4624 95.4546 61.503 95.4546 54.1859C95.4546 46.8686 89.4219 40.9092 82.0146 40.9092L37.0364 40.9092Z" fill="#6927DA"/>
<path d="M21.9546 76.3638C11.3182 76.3638 2.72729 84.8938 2.72729 95.4547C2.7273 105.934 11.3182 114.464 21.8727 114.546C19.2545 114.464 17.2091 112.352 17.2091 109.752C17.2091 107.153 19.3364 104.96 22.0365 104.96C33.4909 104.96 58.9365 104.96 70.1455 104.96C78.0818 104.96 84.5455 98.5418 84.5455 90.6617C84.5455 82.7816 78.0818 76.3638 70.1455 76.3638L21.9546 76.3638Z" fill="#7839EE"/>
</svg>
