<svg width="200" height="200" viewBox="0 0 200 200" fill="none" xmlns="http://www.w3.org/2000/svg">
<path d="M31.8184 101.432C31.8184 113.842 41.7193 123.864 53.9775 123.864C66.1415 123.864 76.0422 113.842 76.1365 101.528C76.0422 104.582 73.5907 106.969 70.5731 106.969C67.5558 106.969 65.0099 104.487 65.0099 101.337C65.0099 87.9734 65.0099 58.2869 65.0099 45.2097C65.0099 35.9506 57.5607 28.4097 48.4142 28.4097C39.2676 28.4097 31.8184 35.9506 31.8184 45.2097L31.8184 101.432Z" fill="#5720B7"/>
<path d="M76.1367 128.705C76.1367 141.114 86.0376 151.137 98.2958 151.137C110.46 151.137 120.361 141.114 120.455 128.801C120.361 131.855 117.909 134.242 114.891 134.242C111.874 134.242 109.328 131.76 109.328 128.61C109.328 115.246 109.328 85.5599 109.328 72.4826C109.328 63.2236 101.879 55.6827 92.7326 55.6827C83.5859 55.6827 76.1367 63.2236 76.1367 72.4826L76.1367 128.705Z" fill="#6927DA"/>
<path d="M120.455 147.557C120.455 160.853 131.117 171.592 144.318 171.592C157.418 171.592 168.08 160.853 168.182 147.66C168.08 150.932 165.44 153.489 162.191 153.489C158.941 153.489 156.2 150.83 156.2 147.455C156.2 133.137 156.2 101.33 156.2 87.3188C156.2 77.3984 148.177 69.3188 138.327 69.3188C128.477 69.3188 120.455 77.3984 120.455 87.3188L120.455 147.557Z" fill="#7839EE"/>
</svg>
